<svg width="116" height="26" viewBox="0 0 116 26" fill="none" xmlns="http://www.w3.org/2000/svg">
<line x1="2" y1="5" x2="2" y2="21" stroke="url(#paint0_linear_333_192)" stroke-width="4" stroke-linecap="round"/>
<line x1="12" y1="7" x2="12" y2="19" stroke="url(#paint1_linear_333_192)" stroke-width="4" stroke-linecap="round"/>
<line x1="22" y1="9" x2="22" y2="17" stroke="url(#paint2_linear_333_192)" stroke-width="4" stroke-linecap="round"/>
<path d="M40.8281 17.1543C40.8281 16.2878 40.5238 15.6038 39.915 15.1025C39.3063 14.5941 38.1927 14.1143 36.5742 13.6631C34.9557 13.2048 33.7741 12.707 33.0293 12.1699C31.9694 11.4108 31.4395 10.4154 31.4395 9.18359C31.4395 7.98763 31.93 7.01725 32.9111 6.27246C33.8994 5.52051 35.1598 5.14453 36.6924 5.14453C37.7308 5.14453 38.6582 5.34505 39.4746 5.74609C40.2982 6.14714 40.9355 6.70573 41.3867 7.42188C41.8379 8.13802 42.0635 8.93652 42.0635 9.81738H40.7314C40.7314 8.75033 40.3662 7.89453 39.6357 7.25C38.9053 6.59831 37.9242 6.27246 36.6924 6.27246C35.4964 6.27246 34.5439 6.54102 33.835 7.07812C33.126 7.60807 32.7715 8.30273 32.7715 9.16211C32.7715 9.95703 33.0902 10.6051 33.7275 11.1064C34.3649 11.6077 35.3854 12.0518 36.7891 12.4385C38.1927 12.818 39.2562 13.2155 39.9795 13.6309C40.7028 14.0391 41.2471 14.5296 41.6123 15.1025C41.9775 15.6755 42.1602 16.3522 42.1602 17.1328C42.1602 18.3646 41.666 19.3529 40.6777 20.0977C39.6966 20.8424 38.4004 21.2148 36.7891 21.2148C35.6862 21.2148 34.6729 21.0179 33.749 20.624C32.8324 20.2301 32.1341 19.6787 31.6543 18.9697C31.1816 18.2607 30.9453 17.4479 30.9453 16.5312H32.2666C32.2666 17.6341 32.6784 18.5042 33.502 19.1416C34.3255 19.779 35.4212 20.0977 36.7891 20.0977C38.0065 20.0977 38.984 19.8291 39.7217 19.292C40.4593 18.7549 40.8281 18.0423 40.8281 17.1543ZM46.1562 21H44.8672V9.37695H46.1562V21ZM44.6416 6.01465C44.6416 5.77116 44.7204 5.56706 44.8779 5.40234C45.0355 5.23047 45.2503 5.14453 45.5225 5.14453C45.7946 5.14453 46.0094 5.23047 46.167 5.40234C46.3317 5.56706 46.4141 5.77116 46.4141 6.01465C46.4141 6.25814 46.3317 6.46224 46.167 6.62695C46.0094 6.79167 45.7946 6.87402 45.5225 6.87402C45.2503 6.87402 45.0355 6.79167 44.8779 6.62695C44.7204 6.46224 44.6416 6.25814 44.6416 6.01465ZM51.6562 6.40137V9.37695H54.0625V10.4297H51.6562V18.1748C51.6562 18.8193 51.7708 19.2992 52 19.6143C52.2363 19.9294 52.6266 20.0869 53.1709 20.0869C53.3857 20.0869 53.7331 20.0511 54.2129 19.9795L54.2666 21.0322C53.93 21.154 53.4717 21.2148 52.8916 21.2148C52.0107 21.2148 51.3698 20.9606 50.9688 20.4521C50.5677 19.9365 50.3672 19.181 50.3672 18.1855V10.4297H48.2295V9.37695H50.3672V6.40137H51.6562ZM61.2275 21.2148C60.2393 21.2148 59.3441 20.9714 58.542 20.4844C57.7471 19.9974 57.1276 19.3206 56.6836 18.4541C56.2396 17.5804 56.0176 16.6029 56.0176 15.5215V15.0596C56.0176 13.9424 56.2324 12.9362 56.6621 12.041C57.099 11.1458 57.7041 10.444 58.4775 9.93555C59.251 9.41992 60.0889 9.16211 60.9912 9.16211C62.402 9.16211 63.5192 9.64551 64.3428 10.6123C65.1735 11.5719 65.5889 12.8861 65.5889 14.5547V15.2744H57.2959V15.5215C57.2959 16.8392 57.6719 17.9385 58.4238 18.8193C59.1829 19.693 60.1354 20.1299 61.2812 20.1299C61.9688 20.1299 62.5739 20.0046 63.0967 19.7539C63.6266 19.5033 64.1064 19.1022 64.5361 18.5508L65.3418 19.1631C64.3965 20.5309 63.0251 21.2148 61.2275 21.2148ZM60.9912 10.2578C60.0244 10.2578 59.208 10.6123 58.542 11.3213C57.8831 12.0303 57.4821 12.9827 57.3389 14.1787H64.3105V14.0391C64.2747 12.9219 63.9561 12.0124 63.3545 11.3105C62.7529 10.6087 61.9652 10.2578 60.9912 10.2578ZM70.7236 18.8301H77.8242V21H68.0059V5.35938H70.7236V18.8301ZM79.167 15.0811C79.167 13.9424 79.3926 12.9183 79.8438 12.0088C80.2949 11.0921 80.9287 10.3903 81.7451 9.90332C82.5615 9.40918 83.4997 9.16211 84.5596 9.16211C86.1279 9.16211 87.3991 9.66699 88.373 10.6768C89.3542 11.6865 89.8841 13.0257 89.9629 14.6943L89.9736 15.3066C89.9736 16.4525 89.7516 17.4766 89.3076 18.3789C88.8708 19.2812 88.2406 19.9795 87.417 20.4736C86.6006 20.9678 85.6553 21.2148 84.5811 21.2148C82.9411 21.2148 81.627 20.6706 80.6387 19.582C79.6576 18.4863 79.167 17.029 79.167 15.21V15.0811ZM81.7773 15.3066C81.7773 16.5026 82.0244 17.4408 82.5186 18.1211C83.0127 18.7943 83.7002 19.1309 84.5811 19.1309C85.4619 19.1309 86.1458 18.7871 86.6328 18.0996C87.127 17.4121 87.374 16.4059 87.374 15.0811C87.374 13.9066 87.1198 12.9756 86.6113 12.2881C86.11 11.6006 85.4261 11.2568 84.5596 11.2568C83.7074 11.2568 83.0306 11.597 82.5293 12.2773C82.028 12.9505 81.7773 13.9603 81.7773 15.3066ZM91.7246 15.1025C91.7246 13.2979 92.1471 11.8584 92.9922 10.7842C93.8444 9.7028 94.9723 9.16211 96.376 9.16211C97.7008 9.16211 98.7428 9.62402 99.502 10.5479L99.6201 9.37695H101.973V20.6455C101.973 22.1709 101.496 23.374 100.544 24.2549C99.5986 25.1357 98.3203 25.5762 96.709 25.5762C95.8568 25.5762 95.0225 25.3971 94.2061 25.0391C93.3968 24.6882 92.7809 24.2262 92.3584 23.6533L93.5938 22.085C94.3958 23.0374 95.3841 23.5137 96.5586 23.5137C97.4251 23.5137 98.109 23.2773 98.6104 22.8047C99.1117 22.3392 99.3623 21.6517 99.3623 20.7422V19.958C98.6104 20.7959 97.6077 21.2148 96.3545 21.2148C94.9938 21.2148 93.8802 20.6742 93.0137 19.5928C92.1543 18.5114 91.7246 17.0146 91.7246 15.1025ZM94.3242 15.3281C94.3242 16.4954 94.5605 17.4157 95.0332 18.0889C95.513 18.7549 96.1755 19.0879 97.0205 19.0879C98.0732 19.0879 98.8538 18.6367 99.3623 17.7344V12.6211C98.8682 11.7402 98.0947 11.2998 97.042 11.2998C96.1826 11.2998 95.513 11.64 95.0332 12.3203C94.5605 13.0007 94.3242 14.0033 94.3242 15.3281ZM104.175 15.0811C104.175 13.9424 104.4 12.9183 104.852 12.0088C105.303 11.0921 105.937 10.3903 106.753 9.90332C107.569 9.40918 108.507 9.16211 109.567 9.16211C111.136 9.16211 112.407 9.66699 113.381 10.6768C114.362 11.6865 114.892 13.0257 114.971 14.6943L114.981 15.3066C114.981 16.4525 114.759 17.4766 114.315 18.3789C113.879 19.2812 113.248 19.9795 112.425 20.4736C111.608 20.9678 110.663 21.2148 109.589 21.2148C107.949 21.2148 106.635 20.6706 105.646 19.582C104.665 18.4863 104.175 17.029 104.175 15.21V15.0811ZM106.785 15.3066C106.785 16.5026 107.032 17.4408 107.526 18.1211C108.021 18.7943 108.708 19.1309 109.589 19.1309C110.47 19.1309 111.154 18.7871 111.641 18.0996C112.135 17.4121 112.382 16.4059 112.382 15.0811C112.382 13.9066 112.128 12.9756 111.619 12.2881C111.118 11.6006 110.434 11.2568 109.567 11.2568C108.715 11.2568 108.038 11.597 107.537 12.2773C107.036 12.9505 106.785 13.9603 106.785 15.3066Z" fill="black"/>
<defs>
<linearGradient id="paint0_linear_333_192" x1="-0.5" y1="3" x2="-0.5" y2="23" gradientUnits="userSpaceOnUse">
<stop stop-color="#EC008C"/>
<stop offset="1" stop-color="#FC6767"/>
</linearGradient>
<linearGradient id="paint1_linear_333_192" x1="9.5" y1="5" x2="9.5" y2="21" gradientUnits="userSpaceOnUse">
<stop stop-color="#E65C00"/>
<stop offset="1" stop-color="#F9D423"/>
</linearGradient>
<linearGradient id="paint2_linear_333_192" x1="19.5" y1="7" x2="19.5" y2="19" gradientUnits="userSpaceOnUse">
<stop stop-color="#00D2FF"/>
<stop offset="1" stop-color="#3A7BD5"/>
</linearGradient>
</defs>
</svg>
